<?xml version="1.0" encoding="utf-8"?>
<!-- Generator: Adobe Illustrator 26.0.3, SVG Export Plug-In . SVG Version: 6.00 Build 0)  -->
<svg version="1.0" id="katman_1" xmlns="http://www.w3.org/2000/svg" xmlns:xlink="http://www.w3.org/1999/xlink" x="0px" y="0px"
	 viewBox="0 0 800 600" style="enable-background:new 0 0 800 600;" xml:space="preserve">
<style type="text/css">
	.st0{fill:#FFFFFF;}
	.st1{fill:#94A6C3;}
	.st2{fill:#060C13;}
	.st3{fill:#FFD923;}
	.st4{fill:#D82122;}
</style>
<g>
	<path class="st0" d="M282.6,321.2l11.8-88.7l-102.3-71l93.4,31.6l22.1-33.8l80.6-50l177.7,97.9l9.2,149.3l-79.1,110l-62.5,9.6
		l32.4-59.2v-57l-23.5-44.5l-23.9-15.8l-36.8,37.9v40.1l-28.7,26.9l-36.4,4.4l-16.2,9.2l-26.5-8.5l-11-39.7l19.9-28V321.2z"/>
	<path class="st1" d="M445.9,160.8c-19.5-4-40.8-2.9-40.8-2.9s-7,32.4-50.4,40.8C355.1,198.7,412.1,218.2,445.9,160.8z"/>
	<path class="st1" d="M463.6,454.3c23.5-18.4,41.2-43.8,49.3-72.5c0.4-1.1,3.7-2.9,5.9-4.4c3.7-2.2,7.4-4,8.1-7
		c1.5-8.5,2.2-17.3,2.2-26.1c0-3.3-3.3-6.6-6.6-9.9c-2.6-2.2-5.2-4.8-5.2-6.6c-3.7-33.5-19.1-64.7-43.8-87.6l-2.6,2.6
		c23.9,22.4,39.4,53,42.7,85.3c0.4,2.9,3.3,5.9,6.3,8.8c2.6,2.2,5.5,5.5,5.5,7c0,8.5-0.7,16.9-2.2,25.4c-0.4,1.5-3.7,2.9-6.3,4.4
		c-3.7,1.8-7,3.7-7.7,6.6c-8.8,31.3-29.1,58.5-55.9,76.1c4.8-10.3,19.9-43.8,28-60.7l-1.5-54.4L433,296.2l-26.5,3.7l-29.1,47.1
		c0,0,13.6,17.3-5.5,37.5c-18.8,19.9-33.5,24.3-33.5,24.3l-13.6-7.4c4-5.2,12.1-12.9,18.4-18c10.7-8.8,21.3-9.6,21.3-19.1
		c0.4-19.9-21-14.3-21-14.3l-7.7,7.4l-3.3,27.2l-16.2,20.2l-1.8-0.4l-26.5-5.9c0,0,16.2-8.5,18.8-18c2.6-9.2-5.1-39.7-5.5-41.6
		c0.4,0.4,7.7,6.6,11,16.9c5.9-16.2,13.6-31.6,15.8-33.1c2.2-1.5,32-17.3,32-17.3l-9.9,26.1l7.4-4l17.7-43.4c0,0,17.3-8.5,30.2-8.5
		c23.2-0.4,57.4-28.7,41.9-79.5c4.4,1.8,80.9,40.1,94.2,115.1C551.5,369,518.7,423.1,463.6,454.3z"/>
	<path class="st2" d="M376,168.9c8.5-9.9,5.2-24.6,5.2-24.6l-24.6,36.4C356.2,180.6,365.4,181,376,168.9z"/>
	<path class="st2" d="M293.3,367.9l2.9-14.7c0,0-12.1,21.3-13.2,24.3c-1.1,3.3,0.7,9.2,5.5,8.8c4.8-0.4,10.7-7.4,10.7-12.5
		C299.2,367.2,293.3,367.9,293.3,367.9z"/>
	<path class="st2" d="M511.8,133.9c0,0,18.4,0.7,37.5,2.9c-43-33.8-83.9-43.8-117-43.8c-45.6,0-76.5,18.8-78.4,19.9l14.3-22.8
		c0,0-57.4-5.5-77.6,55.2c-5.1-12.9-9.9-31.6-9.9-31.6s-29.8,26.1-15.8,69.5c-34.2-12.5-83.1-29.8-85-30.2c-2.6-0.4-3.3,0.7-3.3,0.7
		s-0.7,1.1,1.5,2.9c4,3.3,81.3,60.3,98.2,71.4c-3.7,13.2-3.7,19.5,0,25.8c5.1,8.5,5.5,12.9,4.8,19.1s-7.4,60.3-8.8,67
		c-1.5,6.6-16.9,30.2-16.2,37.2c0.7,7,10.3,36.8,18.8,40.1c6.3,2.2,21.7,7,32,7c3.7,0,7-0.7,8.5-2.2c6.3-5.5,8.1-6.6,12.5-6.6
		c0.4,0,0.7,0,1.1,0c1.8,0,4,0.4,6.6,0.4c5.9,0,13.6-1.1,19.1-6.3c8.1-8.1,22.1-19.1,26.5-24.3c5.5-7,8.5-16.6,7-26.1
		c-1.1-8.8,3.7-16.6,9.2-24.3c7-9.2,19.9-25.8,19.9-25.8c25.4,19.1,41.2,48.2,41.2,80.6c0,57.4-50,103.7-111.8,103.7
		c-9.6,0-18.8-1.1-28-3.3c28.3,9.9,52.2,13.2,71.7,13.2c41.6,0,63.6-15.1,63.6-15.1s-7.7,9.9-20.2,21.3c0.4,0,0.4,0,0.4,0
		c68.8-9.6,102.3-66.2,102.3-66.2s-2.6,18.4-5.9,30.9c91.6-68.8,76.1-154.9,75.8-157.8c0.7,1.1,9.9,12.1,14.7,18
		C635.7,182.9,511.8,133.9,511.8,133.9z M370.9,376c-1.5,1.8-7.7,7.4-12.1,11.4c-4.4,4-9.2,8.1-12.9,11.8c-1.5,1.5-4.4,2.2-8.8,2.2
		c-1.5,0-2.9,0-4,0c-0.7,0-1.5,0-2.2,0s-1.1,0-1.5,0c-1.1,0-2.2,0-3.3,0c5.5-7.4,21.7-24.3,27.2-28c6.6-4.4,9.9-8.8,5.9-16.6
		c-4-7.7-14.7-5.9-14.7-5.9s6.3-2.6,11.8-2.6c-7-1.8-15.8,0-19.9,4c-4.4,4-3.7,18.4-5.5,27.6c-1.8,9.6-8.1,14.3-17.7,23.2
		c-5.1,4.8-8.8,6.3-11.8,6.3c-6.3-1.1-13.6-2.9-18.8-4.8c-3.7-4.8-9.2-20.6-10.7-27.2c1.1-3.7,5.5-11.4,7.7-15.8
		c4.4-8.5,7-13.2,7.7-17.7c1.5-6.3,6.3-44.9,8.1-61.1c4.8,6.3,11.4,16.6,9.9,23.2c10.7-15.1,2.9-29.8-0.7-35.7
		c-3.3-5.9-7.7-17.7-4-30.2c3.7-12.5,16.9-47.1,16.9-47.1s4.4,7.7,10.7,6.3c6.3-1.5,56.7-77.3,56.7-77.3s13.6,29.8-0.7,51.5
		c-14.7,21.7-29.1,25.8-29.1,25.8s20.2,3.7,39-9.9c7.7,18,15.1,36.8,15.5,39.4c-1.1,2.6-15.8,37.9-17.3,40.1
		c-0.7,0.7-5.9,2.2-9.6,2.9c-6.3,1.8-9.9,2.9-11.4,4c-2.6,2.2-14.3,34.6-19.9,50.4c-6.6,1.8-13.2,5.5-18,12.9
		c2.6-1.8,10.7-2.9,16.6-3.7c5.2-0.4,21,8.1,25,23.9c0,0.4,0,0.4,0,0.7C375.7,366,373.8,371.6,370.9,376z M336.3,380.4
		c3.3-4.8,2.9-12.9,3.3-15.5c0.4-2.6,1.1-7.4,4-8.1c2.9-0.7,9.9,0.4,9.9,5.5c0,4.8-5.2,5.9-8.8,9.2
		C342.2,374.1,337,379.7,336.3,380.4z M483.1,310.1c3.7-18.8,4-34.9,2.9-48.2c14.3,19.1,23.2,42.3,25.8,66.2
		c0.4,2.9,3.3,5.9,6.3,8.8c2.6,2.2,5.5,5.2,5.5,7c0,8.5-0.7,16.9-2.2,25.4c-0.4,1.1-3.7,2.9-6.3,4.4c-3.7,1.8-7,3.7-7.7,6.6
		c-8.1,28.3-25.4,53.3-48.6,71C493,415.7,509.6,356.9,483.1,310.1z M459.9,454.7c23.9-18.4,42.3-44.1,50.4-73.2
		c0.4-1.1,3.7-2.9,5.9-4.4c3.7-1.8,7.4-4,8.1-7c1.5-8.5,2.2-17.3,2.2-26.1c0-3.3-3.3-6.6-6.6-9.9c-1.8-2.2-4.8-4.8-4.8-6.6
		c-2.9-26.9-13.6-52.2-30.2-73.2c-7.4-44.1-36.8-57.8-37.5-58.1c0.7,1.1,19.9,28.7,6.6,61.1c-13.6,32.7-48.6,27.6-51.5,28
		c-2.9,0-14.3,14.7-28.7,41.9c-1.8-0.7-9.6-2.6-18.4-1.1c6.6-18.4,16.6-44.5,18.4-46.7c0.7-0.7,6.3-2.2,9.9-3.3
		c7-1.8,10.3-2.9,11.4-4.4c0.7-1.1,4.4-9.6,8.1-18.4c3.3,0,11.8-0.7,12.5-1.1c0.7-0.7,7.7-18.8,7.7-21c0-1.8-14.3-37.5-19.9-51.1
		c2.6-2.9,5.2-6.6,7.7-10.7c75.4,8.1,134.3,72.1,134.3,149.7C545.6,378.6,510.7,430.4,459.9,454.7z"/>
	<path class="st2" d="M362.1,256.1c7-8.1,3.3-23.2-9.6-25.8c3.3-7.7,8.1-23.2,8.1-23.2s-37.5,58.9-40.8,60
		c-3.3,1.1-6.6-11.8-6.6-11.8c-7,26.9,11.8,30.5,14,22.1C337.4,274.8,355.1,263.8,362.1,256.1z"/>
	<path class="st3" d="M330.1,270.4l19.1-32.7c0,0,11,5.5,5.5,14.3C347.7,262.3,330.1,270.4,330.1,270.4z"/>
	<path class="st4" d="M566.6,422c-5.5,7.4-11.8,15.1-19.1,22.4c47.5-91.2,2.2-174.7,0.4-178c3.3,3.3,6.6,7,9.6,10.3
		C593.8,317.1,598.2,377.8,566.6,422z"/>
	<path class="st4" d="M610.7,304.6c-16.6-44.5-40.1-82.4-92-116.6c-50-33.1-103.7-30.5-106.7-30.2c-0.4,0-0.7,0-0.7,0
		c1.8-0.7,3.7-1.1,5.5-1.5c11.4-3.7,26.1-6.6,40.8-8.5c39-5.5,78.4,7.7,105.2,36.1c0.4,0.4,0.4,0.4,0.7,0.7
		C594.2,217.1,610,257.5,610.7,304.6z"/>
	<path class="st4" d="M507,122.5c-54.8-10.3-90.1-5.2-115.5,4.4c-0.7-2.9-3.3-8.8-5.5-13.6c-7.7,9.2-15.8,20.2-21,27.2
		c-14,9.6-19.9,18.8-19.9,18.8c8.1-27.6,31.6-48.2,60.3-53.3c8.1-1.5,16.9-2.2,26.5-2.2C457.3,104.1,482.7,110.4,507,122.5z"/>
	<path class="st4" d="M304.3,193.2c-43-1.5-28.7-51.5-28-54.4C276.3,139.1,279.3,178.1,304.3,193.2z"/>
	<path class="st4" d="M346.6,103c-33.1,19.9-26.5,67.3-26.5,67.3C288.5,122.2,344,104.1,346.6,103z"/>
	<path class="st0" d="M292.2,206.4c2.2,1.8,4.4,5.2,1.8,9.9c-1.5,2.6-3.7,2.2-7,0.7c-4.4-2.2-30.9-17.7-54.8-33.5
		c27.2,9.6,54.8,19.9,59.2,22.1C291.5,205.7,291.8,206,292.2,206.4z"/>
</g>
</svg>
